<?xml version="1.0" encoding="UTF-8" standalone="no"?>
<svg
   viewBox="0 0 32 32"
   width="32px"
   height="32px"
   version="1.1"
   id="svg135"
   sodipodi:docname="icons8-linkedin.svg"
   inkscape:version="1.2.2 (732a01da63, 2022-12-09)"
   xmlns:inkscape="http://www.inkscape.org/namespaces/inkscape"
   xmlns:sodipodi="http://sodipodi.sourceforge.net/DTD/sodipodi-0.dtd"
   xmlns="http://www.w3.org/2000/svg"
   xmlns:svg="http://www.w3.org/2000/svg">
  <defs
     id="defs139" />
  <sodipodi:namedview
     id="namedview137"
     pagecolor="#ffffff"
     bordercolor="#cccccc"
     borderopacity="1"
     inkscape:showpageshadow="0"
     inkscape:pageopacity="1"
     inkscape:pagecheckerboard="0"
     inkscape:deskcolor="#d1d1d1"
     showgrid="false"
     inkscape:zoom="18.252194"
     inkscape:cx="11.971164"
     inkscape:cy="14.162681"
     inkscape:window-width="1920"
     inkscape:window-height="1013"
     inkscape:window-x="-9"
     inkscape:window-y="-9"
     inkscape:window-maximized="1"
     inkscape:current-layer="svg135" />
  <path
     d="M 7.5 5 C 6.132813 5 5 6.132813 5 7.5 L 5 24.5 C 5 25.867188 6.132813 27 7.5 27 L 24.5 27 C 25.867188 27 27 25.867188 27 24.5 L 27 7.5 C 27 6.132813 25.867188 5 24.5 5 Z M 7.5 7 L 24.5 7 C 24.785156 7 25 7.214844 25 7.5 L 25 24.5 C 25 24.785156 24.785156 25 24.5 25 L 7.5 25 C 7.214844 25 7 24.785156 7 24.5 L 7 7.5 C 7 7.214844 7.214844 7 7.5 7 Z M 10.4375 8.71875 C 9.488281 8.71875 8.71875 9.488281 8.71875 10.4375 C 8.71875 11.386719 9.488281 12.15625 10.4375 12.15625 C 11.386719 12.15625 12.15625 11.386719 12.15625 10.4375 C 12.15625 9.488281 11.386719 8.71875 10.4375 8.71875 Z M 19.46875 13.28125 C 18.035156 13.28125 17.082031 14.066406 16.6875 14.8125 L 16.625 14.8125 L 16.625 13.5 L 13.8125 13.5 L 13.8125 23 L 16.75 23 L 16.75 18.3125 C 16.75 17.074219 16.996094 15.875 18.53125 15.875 C 20.042969 15.875 20.0625 17.273438 20.0625 18.375 L 20.0625 23 L 23 23 L 23 17.78125 C 23 15.226563 22.457031 13.28125 19.46875 13.28125 Z M 9 13.5 L 9 23 L 11.96875 23 L 11.96875 13.5 Z"
     id="path133"
     style="fill:#48a961;fill-opacity:1" />
</svg>
