<?xml version="1.0" encoding="UTF-8" standalone="no"?>
<svg
   id="Layer_1"
   data-name="Layer 1"
   viewBox="0 0 122.56 122.88"
   version="1.1"
   sodipodi:docname="icon_moon.svg"
   inkscape:version="1.2.2 (732a01da63, 2022-12-09)"
   xmlns:inkscape="http://www.inkscape.org/namespaces/inkscape"
   xmlns:sodipodi="http://sodipodi.sourceforge.net/DTD/sodipodi-0.dtd"
   xmlns="http://www.w3.org/2000/svg"
   xmlns:svg="http://www.w3.org/2000/svg">
  <sodipodi:namedview
     id="namedview3883"
     pagecolor="#ffffff"
     bordercolor="#cccccc"
     borderopacity="1"
     inkscape:showpageshadow="0"
     inkscape:pageopacity="1"
     inkscape:pagecheckerboard="0"
     inkscape:deskcolor="#d1d1d1"
     showgrid="false"
     inkscape:zoom="4.7531756"
     inkscape:cx="44.286182"
     inkscape:cy="57.119708"
     inkscape:window-width="1920"
     inkscape:window-height="1013"
     inkscape:window-x="-9"
     inkscape:window-y="-9"
     inkscape:window-maximized="1"
     inkscape:current-layer="Layer_1" />
  <defs
     id="defs3876">
    <style
       id="style3874">.cls-1{fill-rule:evenodd;}</style>
  </defs>
  <title
     id="title3878">night</title>
  <path
     class="cls-1"
     d="M121.85,87.3A64.31,64.31,0,1,1,36.88.4c2.94-1.37,5.92.91,4.47,4.47a56.29,56.29,0,0,0,75.75,77.4l.49-.27a3.41,3.41,0,0,1,4.61,4.61l-.35.69ZM92.46,74.67H92A16.11,16.11,0,0,0,76.2,58.93v-.52a15.08,15.08,0,0,0,11-4.72,15.19,15.19,0,0,0,4.72-11h.51a15.12,15.12,0,0,0,4.72,11,15.12,15.12,0,0,0,11,4.72v.51A16.13,16.13,0,0,0,92.46,74.67Zm10.09-46.59h-.27a7.94,7.94,0,0,0-2.49-5.81A7.94,7.94,0,0,0,94,19.78v-.27A7.94,7.94,0,0,0,99.79,17a8,8,0,0,0,2.49-5.8h.27A8,8,0,0,0,105,17a8,8,0,0,0,5.81,2.49v.27A8,8,0,0,0,105,22.27a7.94,7.94,0,0,0-2.49,5.81Zm-41.5,8h-.41a12.06,12.06,0,0,0-3.78-8.82A12.06,12.06,0,0,0,48,23.5v-.41a12.07,12.07,0,0,0,8.82-3.78,12.09,12.09,0,0,0,3.78-8.82h.41a12.08,12.08,0,0,0,3.77,8.82,12.09,12.09,0,0,0,8.83,3.78v.41a12.09,12.09,0,0,0-8.83,3.78,12.08,12.08,0,0,0-3.77,8.82Z"
     id="path3880"
     style="fill-opacity:1;stroke:#48a961;fill:none;stroke-width:5;stroke-dasharray:none" />
</svg>
